#!OML:ASF X:\für Bonn\!DataBase\2005_08_10_Bjorn_Final\c3d\bjorn.ASF
:FULLY-SPECIFIED
:DEGREES
295
root 1.01614 18.7802 1.02183 -184.044 25.0466 183.023
lowerback -6.65612 3.67016 1.84233
upperback 7.76152 5.36633 -1.93729
thorax 12.5227 3.00662 -2.15964
lowerneck 1.11696 0.229462 9.65044
upperneck 18.3265 1.89162 -4.0761
head 5.4485 1.82447 -2.76432
rclavicle 7.67309e-014 -5.32743e-014
rhumerus -332.709 24.6801 279.974
rradius 69.1327
rwrist 8.91737
rhand -17.8369 10.263
rfingers 7.12502
rthumb 8.42779 -19.5489
lclavicle 7.67309e-014 -5.32743e-014
lhumerus 7.09083 -41.2978 78.1728
lradius 65.9787
lwrist -6.96871
lhand -46.6823 -21.4379
lfingers 7.12502
lthumb -19.4019 7.61411
rfemur 6.50888 6.08606 8.08067
rtibia 31.2689
rfoot 2.34492 29.0404
rtoes -9.59934
lfemur -13.3884 -1.4789 -7.66621
ltibia 36.3032
lfoot -10.8863 -8.71702
ltoes -12.6995
296
root 1.05183 18.7536 1.08086 -184.128 24.9845 183.002
lowerback -6.46102 3.66457 1.9427
upperback 7.8387 5.36035 -1.92314
thorax 12.5003 3.01899 -2.21055
lowerneck 0.912034 0.323765 9.53229
upperneck 18.342 1.99803 -4.12031
head 5.49414 1.85792 -2.75305
rclavicle -6.75868e-015 -3.97569e-015
rhumerus -335.755 24.8927 278.786
rradius 69.7582
rwrist 9.04423
rhand -16.5219 9.89546
rfingers 7.12502
rthumb 9.69665 -19.8613
lclavicle -6.75868e-015 -3.97569e-015
lhumerus 4.39691 -41.5658 79.5357
lradius 64.2741
lwrist -7.57429
lhand -45.9507 -21.5242
lfingers 7.12502
lthumb -18.6983 7.59714
rfemur 6.62739 5.91053 8.22024
rtibia 31.254
rfoot 1.20462 29.3725
rtoes -9.47169
lfemur -13.6818 -1.70734 -7.5102
ltibia 36.713
lfoot -10.9664 -8.55655
ltoes -13.4056
297
root 1.08808 18.7248 1.14339 -184.209 24.887 182.977
lowerback -6.22292 3.66393 2.1116
upperback 7.89892 5.36241 -1.97635
thorax 12.4475 3.04626 -2.37456
lowerneck 0.649576 0.408852 9.46781
upperneck 18.4136 2.0805 -4.10897
head 5.56616 1.88869 -2.73361
rclavicle -4.17448e-015 2.38542e-014
rhumerus -338.688 24.9764 277.546
rradius 69.9646
rwrist 9.15096
rhand -15.3685 9.45035
rfingers 7.12502
rthumb 10.8093 -20.2515
lclavicle -4.17448e-015 2.38542e-014
lhumerus 1.77848 -41.7201 80.9005
lradius 62.4123
lwrist -7.82666
lhand -44.628 -20.746
lfingers 7.12502
lthumb -17.4257 8.49296
rfemur 6.73644 5.67922 8.35968
rtibia 31.2693
rfoot 0.0588518 29.6261
rtoes -9.09171
lfemur -14.0021 -1.99181 -7.35192
ltibia 37.1235
lfoot -11.0535 -8.37567
ltoes -14.1518
298
root 1.12455 18.6953 1.20865 -184.283 24.7547 182.978
lowerback -5.95087 3.64843 2.29865
upperback 7.95915 5.3442 -2.0302
thorax 12.3743 3.06598 -2.55522
lowerneck 0.352571 0.502669 9.44579
upperneck 18.5045 2.17516 -4.12951
head 5.65174 1.92598 -2.73045
rclavicle -3.49861e-014 -3.33958e-014
rhumerus -341.517 25.0032 276.226
rradius 69.7042
rwrist 9.19143
rhand -14.6288 9.1682
rfingers 7.12502
rthumb 11.5228 -20.4951
lclavicle -3.49861e-014 -3.33958e-014
lhumerus -0.775083 -41.6975 82.3023
lradius 60.3213
lwrist -7.55856
lhand -43.3255 -20.0686
lfingers 7.12502
lthumb -16.1718 9.27682
rfemur 6.8539 5.43835 8.54242
rtibia 31.2964
rfoot -1.06203 29.8019
rtoes -8.46538
lfemur -14.3401 -2.34307 -7.1605
ltibia 37.5347
lfoot -11.0928 -8.19972
ltoes -14.6132
299
root 1.16131 18.6643 1.27572 -184.339 24.6528 182.951
lowerback -5.70165 3.64753 2.47609
upperback 8.00173 5.34558 -2.08907
thorax 12.2961 3.09313 -2.73176
lowerneck 0.0635444 0.592414 9.37371
upperneck 18.603 2.26585 -4.12426
head 5.73745 1.96049 -2.71067
rclavicle 6.40087e-014 -7.95139e-016
rhumerus -344.376 24.9123 274.791
rradius 69.2643
rwrist 9.1523
rhand -14.126 8.88404
rfingers 7.12502
rthumb 12.0076 -20.7515
lclavicle 6.40087e-014 -7.95139e-016
lhumerus -3.30423 -41.4325 83.803
lradius 58.0023
lwrist -7.00499
lhand -42.57 -19.7537
lfingers 7.12502
lthumb -15.4442 9.64935
rfemur 6.91904 5.18804 8.68128
rtibia 31.3461
rfoot -2.12262 29.9969
rtoes -7.55514
lfemur -14.7071 -2.59118 -6.9909
ltibia 37.9421
lfoot -11.1584 -8.04301
ltoes -15.4205
300
root 1.19834 18.6329 1.34506 -184.407 24.5084 182.95
lowerback -5.39556 3.64561 2.688
upperback 8.03451 5.34407 -2.15175
thorax 12.1757 3.12221 -2.93625
lowerneck -0.178794 0.658071 9.35945
upperneck 18.6788 2.33472 -4.1712
head 5.80755 1.98548 -2.71838
rclavicle 1.31198e-014 -3.18055e-015
rhumerus -347.252 24.5733 273.213
rradius 68.6914
rwrist 8.96444
rhand -13.6546 8.68872
rfingers 7.12502
rthumb 12.4621 -20.9197
lclavicle 1.31198e-014 -3.18055e-015
lhumerus -5.75072 -40.9019 85.2823
lradius 55.4971
lwrist -6.22977
lhand -42.0839 -19.7263
lfingers 7.12502
lthumb -14.976 9.7122
rfemur 7.01274 4.84664 8.8483
rtibia 31.3952
rfoot -3.29443 30.1689
rtoes -6.97779
lfemur -15.0742 -2.82454 -6.78097
ltibia 38.343
lfoot -11.1959 -8.00312
ltoes -15.9615
301
root 1.23604 18.5998 1.41581 -184.481 24.3754 182.91
lowerback -5.10847 3.63936 2.83936
upperback 8.06947 5.34261 -2.20296
thorax 12.0618 3.14476 -3.09336
lowerneck -0.432894 0.731141 9.31237
upperneck 18.7991 2.42634 -4.25297
head 5.89493 2.01918 -2.73043
rclavicle -1.59028e-015 -1.98785e-014
rhumerus -350.068 24.1181 271.697
rradius 68.0489
rwrist 8.69213
rhand -13.2313 8.41491
rfingers 7.12502
rthumb 12.8703 -21.1683
lclavicle -1.59028e-015 -1.98785e-014
lhumerus -8.05633 -39.9751 86.723
lradius 52.7961
lwrist -5.41006
lhand -41.3355 -20.0546
lfingers 7.12502
lthumb -14.255 9.43618
rfemur 7.09335 4.44329 8.96737
rtibia 31.4516
rfoot -4.59772 30.3522
rtoes -6.80127
lfemur -15.4471 -3.03154 -6.60049
ltibia 38.7322
lfoot -11.19 -7.96904
ltoes -16.2448
302
root 1.27411 18.5673 1.48816 -184.532 24.2271 182.93
lowerback -4.84267 3.60474 2.99984
upperback 8.14546 5.29553 -2.17288
thorax 11.9955 3.14258 -3.17189
lowerneck -0.860643 0.837621 9.06482
upperneck 19.0828 2.56054 -4.27026
head 6.06366 2.06686 -2.68471
rclavicle -4.96962e-015 -5.56597e-015
rhumerus -352.747 23.5581 270.382
rradius 67.2616
rwrist 8.56424
rhand -12.5097 7.86305
rfingers 7.12502
rthumb 13.5658 -21.675
lclavicle -4.96962e-015 -5.56597e-015
lhumerus -10.1516 -38.5628 88.1292
lradius 49.9667
lwrist -4.64609
lhand -40.3742 -20.7672
lfingers 7.12502
lthumb -13.3285 8.78652
rfemur 7.18241 4.05202 9.16493
rtibia 31.4976
rfoot -5.93553 30.4629
rtoes -6.64277
lfemur -15.8223 -3.27436 -6.35594
ltibia 39.1068
lfoot -11.1964 -7.92529
ltoes -16.7934
303
root 1.31315 18.5341 1.5614 -184.583 24.0736 182.911
lowerback -4.60139 3.53859 3.04568
upperback 8.22628 5.20768 -2.07248
thorax 11.925 3.10497 -3.11531
lowerneck -1.21673 0.960289 8.62385
upperneck 19.3286 2.74068 -4.28745
head 6.20829 2.12265 -2.60372
rclavicle -2.98177e-015 3.97569e-015
rhumerus -355.329 23.0022 269.284
rradius 66.3038
rwrist 8.38368
rhand -11.6256 7.09507
rfingers 7.12502
rthumb 14.4178 -22.3841
lclavicle -2.98177e-015 3.97569e-015
lhumerus -12.1241 -36.7153 89.5129
lradius 47.1134
lwrist -3.94098
lhand -39.7559 -20.8005
lfingers 7.12502
lthumb -12.7325 8.79133
rfemur 7.25563 3.67051 9.32405
rtibia 31.535
rfoot -7.08648 30.5563
rtoes -6.08962
lfemur -16.2101 -3.49461 -6.14279
ltibia 39.4622
lfoot -11.2105 -7.9041
ltoes -17.1029
304
root 1.35234 18.5014 1.63565 -184.634 23.9198 182.913
lowerback -4.35669 3.4665 3.10372
upperback 8.33051 5.11259 -1.95479
thorax 11.8783 3.06575 -3.04674
lowerneck -1.54657 1.08847 8.17272
upperneck 19.5024 2.93455 -4.34218
head 6.32649 2.17734 -2.53163
rclavicle 1.15295e-014 5.56597e-015
rhumerus -357.723 22.3211 268.295
rradius 65.0761
rwrist 7.89063
rhand -10.8978 6.55565
rfingers 7.12502
rthumb 15.1189 -22.8721
lclavicle 1.15295e-014 5.56597e-015
lhumerus -13.9368 -34.5876 90.7212
lradius 44.3683
lwrist -3.06737
lhand -39.6803 -20.4989
lfingers 7.12502
lthumb -12.6596 9.09741
rfemur 7.34017 3.33189 9.51305
rtibia 31.5536
rfoot -8.07797 30.6348
rtoes -5.04803
lfemur -16.5821 -3.68227 -5.90362
ltibia 39.7866
lfoot -11.1698 -7.91568
ltoes -17.444
305
root 1.39206 18.4701 1.71061 -184.66 23.7844 182.911
lowerback -4.13576 3.43585 3.19477
upperback 8.4205 5.07534 -1.88207
thorax 11.8441 3.05988 -3.03466
lowerneck -1.82381 1.18646 7.7812
upperneck 19.6222 3.07738 -4.33877
head 6.41549 2.21468 -2.4536
rclavicle -4.57205e-014 4.77083e-014
rhumerus -360.027 21.3312 267.322
rradius 63.7147
rwrist 7.31854
rhand -10.5274 6.46079
rfingers 7.12502
rthumb 15.4757 -22.9398
lclavicle -4.57205e-014 4.77083e-014
lhumerus -15.6074 -32.2875 91.6812
lradius 41.8593
lwrist -1.50724
lhand -39.9999 -19.6616
lfingers 7.12502
lthumb -12.9677 9.91544
rfemur 7.39363 2.99532 9.69616
rtibia 31.5544
rfoot -9.02608 30.7155
rtoes -4.13187
lfemur -16.9572 -3.83355 -5.66119
ltibia 40.0795
lfoot -11.1254 -7.92953
ltoes -17.737
306
root 1.43191 18.4407 1.78648 -184.704 23.6261 182.89
lowerback -3.90721 3.41227 3.29674
upperback 8.53151 5.05691 -1.84813
thorax 11.8369 3.06927 -3.06693
lowerneck -2.09023 1.2625 7.52577
upperneck 19.686 3.18517 -4.39484
head 6.48528 2.23738 -2.41961
rclavicle 4.27387e-014 -2.78299e-014
rhumerus -362.144 20.0373 266.412
rradius 62.2598
rwrist 6.85875
rhand -10.1456 6.5505
rfingers 7.12502
rthumb 15.8434 -22.8213
lclavicle 4.27387e-014 -2.78299e-014
lhumerus -17.0655 -29.73 92.3179
lradius 39.5498
lwrist 0.656601
lhand -40.5112 -18.4176
lfingers 7.12502
lthumb -13.4606 11.1274
rfemur 7.4585 2.65341 9.87028
rtibia 31.5449
rfoot -10.0315 30.7495
rtoes -3.44173
lfemur -17.3104 -3.97126 -5.43141
ltibia 40.3242
lfoot -10.9954 -7.99719
ltoes -17.6827
307
root 1.47226 18.4119 1.86427 -184.725 23.4668 182.885
lowerback -3.65898 3.40018 3.41241
upperback 8.61355 5.05149 -1.8223
thorax 11.7879 3.08473 -3.11612
lowerneck -2.32734 1.30835 7.34698
upperneck 19.7826 3.26693 -4.50419
head 6.56056 2.25237 -2.41738
rclavicle 7.15625e-015 -5.56597e-015
rhumerus -364.161 18.5307 265.627
rradius 60.8004
rwrist 6.65258
rhand -9.40039 6.32685
rfingers 7.12502
rthumb 16.561 -22.9865
lclavicle 7.15625e-015 -5.56597e-015
lhumerus -18.4652 -26.941 92.6755
lradius 37.4278
lwrist 3.19448
lhand -41.0827 -17.4049
lfingers 7.12502
lthumb -14.0114 12.1029
rfemur 7.50288 2.31936 10.0668
rtibia 31.5261
rfoot -10.9893 30.8029
rtoes -2.78819
lfemur -17.6667 -4.04728 -5.178
ltibia 40.5235
lfoot -10.8644 -8.10476
ltoes -17.8867
